<svg version="1.1" viewBox="0 0 100 100" xmlns="http://www.w3.org/2000/svg">
	<rect width="100" height="100" rx="6" ry="6" fill="#06c167"/>
	<path d="m46.326 63.473c.67633 0 1.2248.54846 1.2248 1.2248 0 .67633-.54846 1.2248-1.2248 1.2248s-1.2248-.54846-1.2248-1.2248c0-.67634.54846-1.2248 1.2248-1.2248zm7.3488 0c.67633 0 1.2248.54846 1.2248 1.2248 0 .67633-.54846 1.2248-1.2248 1.2248s-1.2248-.54846-1.2248-1.2248c0-.67634.54846-1.2248 1.2248-1.2248zm-8.5736-17.147c1.3529 0 2.4496 1.0967 2.4496 2.4496 0 1.3529-1.0967 2.4496-2.4496 2.4496-1.3529 0-2.4496-1.0967-2.4496-2.4496 0-1.3529 1.0967-2.4496 2.4496-2.4496zm9.7984 0c1.3529 0 2.4496 1.0967 2.4496 2.4496 0 1.3529-1.0967 2.4496-2.4496 2.4496s-2.4496-1.0967-2.4496-2.4496c0-1.3529 1.0967-2.4496 2.4496-2.4496zm9.7984 17.147c0 5.4114-6.5804 9.7984-14.698 9.7984-8.1173 0-14.698-4.387-14.698-9.7984 0-2.2059 1.0933-4.2415 2.9384-5.879-1.8451-2.4565-2.9384-5.5099-2.9384-8.8186l.30199-2.9785c-1.3237.35887-2.9295.35911-4.2231-.01176-2.493-.71479-6.2686-3.5089-5.7093-5.4596.55937-1.9507 5.2419-2.3194 7.7349-1.6045 1.4555.41736 2.9969 1.4427 3.9164 2.612l1.3937-1.977c-1.4793-2.699-.96502-10.177 6.3838-12.627l-.22534.33736-.0061.0098c-.66722 1.0737-2.4324 4.4897-.57994 8.1523 1.7557-.74096 3.6852-1.1506 5.7106-1.1506 2.0253 0 3.9549.40965 5.7105 1.1506 1.8526-3.6625.08745-7.0786-.57982-8.1523l-.23149-.34713c7.3488 2.4496 7.863 9.928 6.3837 12.627l1.3938 1.977c.91958-1.1693 2.4609-2.1947 3.9164-2.612 2.493-.71484 7.1756-.34615 7.7349 1.6046.55949 1.9507-3.2163 4.7448-5.7093 5.4596-1.2936.37087-2.8993.37062-4.2231.01176l.30204 2.9785c0 3.3087-1.0933 6.3621-2.9385 8.8186 1.8453 1.6376 2.9385 3.6732 2.9385 5.879zm-14.698-4.8992c-5.4115 0-9.7984 2.1934-9.7984 4.8992 0 2.7058 4.3869 4.8992 9.7984 4.8992 5.4114 0 9.7984-2.1934 9.7984-4.8992 0-2.7058-4.387-4.8992-9.7984-4.8992zm0-4.8992c2.7492 0 5.3222.50315 7.523 1.3791 1.4205-1.7003 2.2754-3.8895 2.2754-6.2783 0-5.4115-4.387-9.7984-9.7984-9.7984-5.4115 0-9.7984 4.3869-9.7984 9.7984 0 2.3888.85489 4.5781 2.2754 6.2783 2.2007-.87598 4.7736-1.3791 7.5231-1.3791zm5.1307-26.598-.0061-.0098z" fill="#f2f2f2" stroke-linejoin="round"/>
</svg>
