<svg version="1.1" viewBox="0 0 100 100" xmlns="http://www.w3.org/2000/svg">
	<rect width="100" height="100" rx="6" ry="6" fill="#06c167"/>
	<path d="m39.103 28.207h21.794c7.2216 0 13.076 5.8543 13.076 13.076h-47.946c0-7.222 5.8545-13.076 13.076-13.076zm34.871 30.511c0 7.222-5.8546 13.076-13.076 13.076h-21.794c-7.2218 0-13.076-5.8543-13.076-13.076zm-43.588-13.076h21.794l6.5381 6.5381 6.5381-6.5381h4.3588c2.4073 0 4.3588 1.9514 4.3588 4.3588s-1.9514 4.3588-4.3588 4.3588h-39.229c-2.4073 0-4.3588-1.9514-4.3588-4.3588s1.9514-4.3588 4.3588-4.3588z" fill="#f2f2f2" fill-rule="evenodd" stroke-linejoin="round"/>
</svg>
