<svg version="1.1" viewBox="0 0 100 100" xmlns="http://www.w3.org/2000/svg">
	<rect width="100" height="100" rx="6" ry="6" fill="#06c167"/>
	<path d="m50 26.229c-8.4863 0-16.093 3.6608-21.37 9.5085l21.37 38.034 21.37-38.034c-5.2534-5.8239-12.884-9.5085-21.37-9.5085zm-11.886 11.886c0-2.6148 2.1394-4.7542 4.7542-4.7542 2.6148 0 4.7542 2.1394 4.7542 4.7542s-2.1394 4.7542-4.7542 4.7542c-2.6148 0-4.7542-2.1394-4.7542-4.7542zm11.886 19.017c-2.6148 0-4.7542-2.1394-4.7542-4.7542 0-2.6148 2.1394-4.7542 4.7542-4.7542s4.7542 2.1394 4.7542 4.7542c0 2.6148-2.1394 4.7542-4.7542 4.7542z" fill="#f2f2f2"/>
</svg>
