<?xml version="1.0" standalone="no"?>
<!DOCTYPE svg PUBLIC "-//W3C//DTD SVG 20010904//EN"
 "http://www.w3.org/TR/2001/REC-SVG-20010904/DTD/svg10.dtd">
<svg version="1.0" xmlns="http://www.w3.org/2000/svg"
 width="700.000000pt" height="700.000000pt" viewBox="0 0 700.000000 700.000000"
 preserveAspectRatio="xMidYMid meet">
<metadata>
Created by potrace 1.11, written by Peter Selinger 2001-2013
</metadata>
<g transform="translate(0.000000,700.000000) scale(0.100000,-0.100000)"
fill="#000000" stroke="none">
<path d="M4680 6060 c-124 -31 -237 -59 -252 -63 l-26 -7 45 -172 c24 -95 47
-184 49 -198 3 -14 30 -122 60 -240 31 -118 57 -222 59 -230 2 -8 29 -118 60
-243 31 -126 54 -231 51 -234 -3 -3 -148 -6 -323 -7 -206 -1 -318 -5 -317 -11
1 -5 5 -41 9 -80 3 -38 8 -83 10 -100 2 -16 7 -55 10 -85 3 -30 8 -68 10 -85
4 -29 6 -46 20 -175 4 -30 8 -69 10 -87 5 -31 21 -174 31 -268 3 -27 7 -61 9
-75 2 -14 6 -54 10 -90 4 -36 8 -76 10 -90 2 -14 7 -50 10 -80 3 -30 8 -72 10
-92 3 -21 7 -55 10 -75 2 -21 7 -63 10 -93 3 -30 10 -89 15 -130 5 -41 11 -95
14 -120 7 -64 36 -319 41 -355 2 -16 7 -55 10 -85 9 -85 15 -138 25 -220 5
-41 12 -97 15 -125 11 -109 17 -161 20 -185 2 -14 6 -45 9 -70 3 -25 8 -67 11
-95 14 -119 16 -142 20 -170 2 -16 7 -61 10 -100 4 -38 9 -78 11 -88 2 -10 8
-64 14 -120 6 -56 13 -115 15 -132 2 -16 7 -52 10 -80 3 -27 8 -68 11 -90 3
-22 7 -59 8 -82 1 -24 6 -46 10 -50 9 -9 1446 -11 1451 -2 5 7 12 50 20 124 8
78 12 111 25 220 6 50 12 106 14 125 2 19 9 82 16 140 7 58 13 116 15 130 3
30 15 131 21 180 2 19 6 58 9 85 3 28 8 68 11 90 10 89 15 131 19 160 2 17 6
57 10 90 4 33 8 71 10 85 2 14 7 54 10 90 3 36 8 76 10 90 2 14 6 50 10 80 3
30 8 71 10 90 8 64 25 214 30 260 12 107 15 137 20 170 2 19 7 60 10 90 4 30
8 66 10 80 2 14 6 54 10 90 4 36 8 76 10 90 2 14 6 54 9 90 4 36 9 76 11 90 2
14 7 50 10 80 3 30 8 66 10 80 3 14 7 54 11 90 3 36 7 79 10 95 2 17 6 53 9
80 3 28 7 66 10 85 3 19 7 60 10 90 3 30 8 66 10 80 2 14 6 54 10 90 4 36 9
79 11 95 2 17 7 59 10 95 3 36 7 70 7 75 1 7 -185 11 -538 12 -297 1 -554 2
-570 2 l-31 1 -34 138 c-19 75 -35 142 -36 147 -13 64 -287 1142 -292 1150 -5
8 -70 -4 -232 -45z"/>
<path d="M1339 3786 c-2 -2 -17 -6 -34 -9 -113 -19 -246 -73 -340 -137 -193
-133 -342 -369 -371 -589 -13 -97 -13 -131 -1 -132 70 -5 3182 -2 3189 2 16
10 1 146 -27 242 -83 287 -306 507 -605 599 l-75 22 -866 3 c-476 2 -867 1
-870 -1z"/>
<path d="M797 2612 c-213 -54 -283 -333 -122 -488 90 -86 -38 -79 1520 -79
l1380 0 48 25 c244 124 211 477 -51 544 -28 7 -111 12 -205 12 l-157 -1 -219
-219 -220 -219 -219 219 -220 219 -743 0 c-568 0 -754 -3 -792 -13z"/>
<path d="M586 1688 c10 -154 72 -326 162 -448 143 -194 345 -316 587 -357 22
-3 407 -7 855 -7 608 0 831 3 880 12 278 53 514 234 633 482 52 110 73 189 84
308 l6 72 -1605 0 -1606 0 4 -62z"/>
</g>
</svg>
