<svg version="1.1" viewBox="0 0 100 100" xmlns="http://www.w3.org/2000/svg">
	<rect width="100" height="100" rx="6" ry="6" fill="#06c167"/>
	<path d="m50 71.695 2.1851-8.7405c-9.3639-.54208-17.825-4.5582-20.276-9.8414-.23456 1.387-.63242 2.6546-1.1935 3.6364-1.9284 3.3749-5.7853 3.3749-9.6422 3.3749 3.1951 0 4.339-4.5328 4.339-10.124 0-5.5915-1.1438-10.124-4.339-10.124 3.8569 0 7.7137 0 9.6422 3.3748.56109.98177.95892 2.2493 1.1935 3.6364 1.9054-4.1067 7.4416-7.4476 14.21-8.9866l-4.7975-9.5952c5.7853 0 11.571 0 15.427 1.9284 3.2563 1.6281 5.1379 4.6306 6.8053 7.8472 8.4558 2.0162 15.372 6.5944 15.372 11.919 0 5.4367-7.2097 10.095-15.907 12.043-2.3997 3.1698-4.7434 6.1162-6.7523 7.7234-2.4107 1.9285-4.339 1.9285-6.2675 1.9285zm14.463-26.034c-1.5976 0-2.8927 1.295-2.8927 2.8927s1.295 2.8927 2.8927 2.8927 2.8927-1.295 2.8927-2.8927-1.295-2.8927-2.8927-2.8927z" fill="#f2f2f2" stroke-linejoin="round"/>
</svg>
