<svg version="1.1" viewBox="0 0 100 100" xmlns="http://www.w3.org/2000/svg">
	<rect width="100" height="100" rx="6" ry="6" fill="#06c167"/>
	<path d="m69.808 66.978h-39.616c-6.2513 0-11.319-5.0678-11.319-11.319-2.8e-5-12.503 10.135-22.638 22.638-22.638 3.0021 0 5.8677.58437 8.4892 1.6456 2.6215-1.0612 5.4871-1.6456 8.4892-1.6456 12.503 0 22.638 10.135 22.638 22.638 0 6.2512-5.0678 11.319-11.319 11.319zm-45.276-11.319c0 3.1257 2.5338 5.6595 5.6595 5.6595 3.1256 0 5.6595-2.5337 5.6595-5.6595 0-6.7051 2.9151-12.729 7.5472-16.875l-1.8877-.10377c-9.3769 0-16.978 7.6015-16.978 16.978zm45.276 5.6595c3.1257 0 5.6595-2.5337 5.6595-5.6595 0-9.3769-7.6015-16.978-16.978-16.978-9.3769 0-16.978 7.6015-16.978 16.978 0 2.0617-.5512 3.9947-1.5143 5.6595z" fill="#f2f2f2" stroke-linejoin="round" stroke-width=".2"/>
</svg>
